# xmcd
#
# Track frame offsets:
#	150
#	12277
#	29670
#	41436
#	50648
#	62882
#	73084
#	80564
#	91223
#	103607
#	114440
#	127170
#	138809
#	149379
#	164612
#	176964
#	194857
#	207604
#	220849
#	233343
#
# Disc length: 3300 seconds
#
# Revision: 1
# Processed by: cddbd v1.5.2PL0 Copyright (c) Steve Scherf et al.
# Submitted via: audiograbber 1.83.01
#
DISCID=350ce214
DTITLE=Various Artist - 20 Hits: There Stands the Glass
DYEAR=2011
DGENRE=Country
TTITLE0=Johnny Lee - Hey Bartender
TTITLE1=Merle Haggard - I Think I'll Just Stay Here and Drink
TTITLE2=George Jones - White Lightning
TTITLE3=Roger Miller - Chug-a-Lug
TTITLE4=Johnny Russell - Red Necks, White Socks, and Blue Ribbon Beer
TTITLE5=Webb Pierce - There Stands the Glass
TTITLE6=Willie Nelson - I Gotta Get Drunk
TTITLE7=Johnny Bush - Whiskey River
TTITLE8=Johnny Paycheck - Georgia In a Jug
TTITLE9=Faron Young - Wine Me Up
TTITLE10=George Jones - Brothers of a Bottle
TTITLE11=Mickey Gilley - Honky Tonk Wine
TTITLE12=Ernest Tubb and Ferlin Husky - Set Up Two Glasses, Joe
TTITLE13=Billy Walker - Til I Drink Milwaukee Dry
TTITLE14=Moe Bandy - Barstool Mountain
TTITLE15=Asleep At The Wheel - The Letter That Johnny Walker Read (live)
TTITLE16=T.G. Sheppard - Devil In the Bottle
TTITLE17=Doug Stone - Warning Labels
TTITLE18=Merle Haggard - The Bottle Let Me Down
TTITLE19=Cal Smith - The Lord Knows I'm Drinking
EXTD=
EXTT0=
EXTT1=
EXTT2=
EXTT3=
EXTT4=
EXTT5=
EXTT6=
EXTT7=
EXTT8=
EXTT9=
EXTT10=
EXTT11=
EXTT12=
EXTT13=
EXTT14=
EXTT15=
EXTT16=
EXTT17=
EXTT18=
EXTT19=
PLAYORDER=
